<?xml version="1.0" standalone="no"?>
<!DOCTYPE svg PUBLIC "-//W3C//DTD SVG 1.1//EN" "http://www.w3.org/Graphics/SVG/1.1/DTD/svg11.dtd" >
<!--
2013-9-30: Created.
-->
<svg>
<metadata>
Created by iconfont
</metadata>
<defs>

<font id="iconfont" horiz-adv-x="1024" >
  <font-face
    font-family="iconfont"
    font-weight="500"
    font-stretch="normal"
    units-per-em="1024"
    ascent="896"
    descent="-128"
  />
    <missing-glyph />
    
    <glyph glyph-name="fankuitianxie" unicode="&#59035;" d="M1055.738 838.406c-45.439 36.351-154.492 27.262-304.439-86.333-213.562-159.036-308.983-368.052-445.298-572.527-22.719-31.807 13.632-49.983 40.895-36.351l86.333 49.983c13.632 4.544 18.175 4.544 13.632 27.262-9.088 68.158 18.176 131.772 59.070 186.298v0c149.947-63.614 331.702-27.262 395.317 154.492 81.789 18.176 159.036 109.053 172.667 172.666 13.632 45.439 9.088 86.333-18.175 104.509zM142.422 179.546c122.684-213.562 390.773-286.263 604.333-163.58 140.859 81.789 218.105 227.193 222.649 377.14 0 49.983-59.070 45.439-59.070 0 0-131.772-68.158-254.457-190.842-327.158-186.298-104.509-422.579-40.895-527.088 140.859-109.053 186.298-45.439 422.579 140.859 527.088 99.965 59.070 222.649 68.158 322.614 27.262 40.895-13.632 59.070 40.895 18.175 54.527-118.141 40.895-249.911 36.351-368.052-31.807-213.562-122.684-286.263-395.317-163.58-604.333z"  horiz-adv-x="1138" />

    
    <glyph glyph-name="yinle1" unicode="&#59057;" d="M628.905386 126.139573 628.905386 413.738981l169.381759 27.464779C771.308637 584.188416 645.822916 692.366272 494.993179 692.366272c-170.51599 0-308.738475-138.222485-308.738475-308.738875 0-170.516989 138.222485-308.738875 308.738475-308.738875 16.540186 0 32.756191 1.34209 48.589456 3.839397 12.391598 20.573051 34.625524 37.084856 62.858182 44.145869C613.897561 124.723533 621.429455 125.817792 628.905386 126.139573zM551.718919 667.169355l-33.079572-144.922942-33.078373 0-23.62798 144.922942C496.589896 684.502603 551.718919 667.169355 551.718919 667.169355zM494.993179 269.004311c-63.300482 0-114.622086 51.317007-114.622086 114.622886 0 63.30348 51.321604 114.622486 114.622086 114.622486 63.306478 0 114.622486-51.319006 114.622486-114.622486C609.615665 320.321518 558.299457 269.004311 494.993179 269.004311zM494.993179 471.021943c-48.20112 0-87.394147-39.192827-87.394147-87.394546 0-48.20112 39.192827-87.395546 87.394147-87.395546 48.201719 0 87.395946 39.194226 87.395946 87.395546C582.389124 431.829116 543.194698 471.021943 494.993179 471.021943zM494.993179 321.20292c-34.421063 0-62.423477 28.002015-62.423477 62.424476 0 34.421662 28.011408 62.424076 62.423477 62.424076 34.432055 0 62.416082-28.002414 62.416082-62.424076C557.409061 349.204735 529.425034 321.20292 494.993179 321.20292zM534.528574 25.468229c1.499983-8.297374 4.789753-16.008146 9.524542-22.939447-16.073102-2.058604-32.429013-3.239803-49.050144-3.239803-211.934708 0-384.347812 172.417701-384.347812 384.338419 0 211.922716 172.413104 384.338419 384.338019 384.338419 188.118456 0 345.001689-135.905456 377.892189-314.664258l-37.310503-6.059292c-29.969681 160.790984-171.236502 282.919381-340.581686 282.919381-191.084445 0-346.53365-155.451604-346.53365-346.53425 0-191.080048 155.449205-346.53425 346.53365-346.53425 12.796724 0 25.414169 0.748493 37.859731 2.104573C532.968631 34.638811 533.461497 30.051921 534.528574 25.468229zM912.096583 432.574011l0-333.227272c0-27.59629-20.573051-49.609165-52.658098-57.716668-35.234911-8.736077-69.250848 6.021917-75.997274 33.022611-6.760416 27.057655 16.31294 56.065787 51.53386 64.879811 15.920206 3.931335 31.587384 3.128879 44.698494-1.494986L879.673565 338.79999l-180.148459-32.927675-0.834434-249.757065-0.036975 0c-0.156894-23.646767-21.482435-46.868223-52.156438-54.45388-34.814196-8.759061-71.280472 7.807706-75.193819 32.597899-6.691463 26.747865 16.124068 55.470191 51.00222 64.201272 15.699356 3.904353 31.039755 3.119885 43.933013-1.402049L666.238674 392.699646 912.096583 432.574011z"  horiz-adv-x="1024" />

    
    <glyph glyph-name="high-heels" unicode="&#59025;" d="M295.071695 434.081609c-30.099765 0-53.71558-33.563738-53.715581-33.563738s-22.277826 33.563738-53.72958 33.563738c-30.595761 0-55.577566-25.233803-57.211553-55.785564-0.919993-17.259865 4.643964-30.397763 12.481903-42.29167 15.663878-23.767814 84.155343-80.993367 98.56123-80.993367 14.705885 0 82.585355 57.015555 98.353231 80.993367 7.855939 11.951907 13.403895 25.031804 12.479903 42.29167-1.637987 30.551761-26.623792 55.785564-57.219553 55.785564M873.255178 515.148975h-141.726893v-68.675463c80.379372-108.269154 80.387372-468.664339 80.387372-468.664339H902.214951c11.999906 274.045859 63.833501 433.834611 85.707331 537.339802h-114.667104zM989.41627 522.428919c0.273998 1.371989 0.543996 2.741979 0.799994 4.085968 0.105999 0.545996 0.201998 1.081992 0.305998 1.625987 0.245998 1.30999 0.489996 2.61998 0.721994 3.903969l0.267998 1.511989c0.231998 1.32599 0.461996 2.645979 0.679994 3.949969l0.219999 1.327989c0.223998 1.373989 0.441997 2.741979 0.649995 4.099968l0.165998 1.095992a395.034914 395.034914 0 0 1 0.729995 5.13796c0.211998 1.573988 0.413997 3.143975 0.599995 4.707963l0.048 0.395997c1.577988 13.203897 2.329982 26.213795 2.329981 40.86568 0 128.168999-64.789494 195.048476-64.789493 195.048477-335.089382-156.030781-406.98482-321.849486-508.050031-511.506004-41.141679-77.203397-244.982086-14.06789-311.275568-47.585628-46.007641-23.261818-78.05539-73.983422-84.673339-164.562715l-0.032-0.423996a430.280638 430.280638 0 0 1-0.589995-9.757924l-0.069999-1.30999c-0.139999-3.021976-0.245998-6.099952-0.327998-9.209928-0.018-0.679995-0.062-1.33999-0.061999-2.021984 0-38.953696 144.250873-65.995484 302.709635-65.995485 9.903923 0 19.319849 0.139999 28.281779 0.437997 4.479965 0.147999 8.849931 0.335997 13.109897 0.561996a531.915844 531.915844 0 0 1 6.309951 0.373997c78.905384 5.10796 119.455067 25.125804 152.548808 71.423442a253.886017 253.886017 0 0 1 7.71394 11.46191c13.517894 21.269834 26.149796 47.35963 40.195686 79.117382 132.850962 300.485652 247.524066 372.593089 402.576855 373.927079 2.461981 0.022 4.931961 0.032 7.413942 0.031999 0.411997 1.941985 0.803994 3.84997 1.185991 5.733956 0.101999 0.521996 0.199998 1.031992 0.303997 1.545988zM951.582566 809.01668a27.063789 27.063789 0 0 1-30.857759 5.701955c-147.682846-68.767463-254.916008-143.37288-337.477364-234.790166-73.863423-81.793361-118.457075-166.276701-165.666705-255.724002a9376.642745 9376.642745 0 0 0-17.365865-32.795744c-11.019914-20.679838-49.88161-25.877798-93.287271-26.195795 0.197998 0.165999 0.385997 0.313998 0.587996 0.481996 9.527926 7.911938 41.645675 35.287724 54.901571 55.443567 7.949938 12.097905 18.351857 31.331755 16.889868 58.603542-2.443981 45.641643-39.445692 81.397364-84.235342 81.397364-21.80183 0-40.189686-10.439918-53.431583-21.313833-13.115898 10.917915-31.511754 21.313833-54.017578 21.313833-44.78965 0-81.789361-35.755721-84.233342-81.399364-1.457989-27.333786 8.95193-46.549636 16.911868-58.627542 11.849907-17.97786 39.205694-41.991672 51.549597-52.39959-27.939782-0.699995-52.649589-4.071968-71.237443-13.469895-59.123538-29.889766-92.581277-92.719276-99.457223-186.780541l-0.032-0.413997a449.166491 449.166491 0 0 1-0.621995-10.313919l-0.075999-1.441989a475.836283 475.836283 0 0 1-0.345998-9.727924l-0.014-0.365997C0.028 45.406645 0.004 44.612651 0.004 43.806658c0-45.243647 64.765494-63.9575 113.477113-74.097421 58.729541-12.225904 135.544941-18.957852 216.292311-18.957852 10.327919 0 20.147843 0.153999 29.173772 0.453996a663.530816 663.530816 0 0 1 20.275841 0.977993c85.79733 5.555957 134.248951 28.739775 172.81265 82.691354a284.337779 284.337779 0 0 1 8.539934 12.6859c12.7519 20.065843 25.345802 44.79565 42.107671 82.691354 46.397638 104.94118 90.645292 182.468574 136.208935 238.030141 36.909712-114.257107 45.955641-310.539574 45.969641-390.47095 0.002-14.941883 12.115905-27.055789 27.057789-27.055788h90.299294c14.483887 0 26.397794 11.405911 27.031789 25.875798 9.549925 218.022297 44.077656 360.663182 69.291459 464.814368 6.177952 25.519801 11.51391 47.557628 15.855876 68.113468v0.006c0.427997 2.017984 0.837993 4.001969 1.22799 5.935954l0.321998 1.625987 0.002 0.008c0.285998 1.443989 0.569996 2.879978 0.845993 4.313966l0.315998 1.683987c0.259998 1.379989 0.513996 2.753978 0.775994 4.199967l0.269998 1.531988c0.247998 1.409989 0.489996 2.805978 0.721994 4.201967l0.231998 1.409989c0.237998 1.469989 0.469996 2.927977 0.695995 4.391966l0.175998 1.165991c0.231998 1.555988 0.453996 3.105976 0.667995 4.651964l0.121999 0.889993c0.227998 1.693987 0.443997 3.379974 0.657995 5.149959l0.044 0.343998c1.719987 14.391888 2.52198 28.397778 2.52198 44.075655C1023.996 732.683276 954.536543 805.964703 951.582566 809.01668zM157.43077 376.852056c0.889993 16.63587 14.433887 30.169764 30.191764 30.169764 13.479895 0 27.453786-16.005875 31.187757-21.467832 4.939961-7.445942 13.199897-12.027906 22.133827-12.149905 8.91593-0.046 17.311865 4.117968 22.455824 11.425911 5.007961 6.951946 19.935844 22.189827 31.671753 22.189826 15.759877 0 29.303771-13.533894 30.193764-30.173764 0.489996-9.117929-1.775986-16.405872-8.065937-25.979797-10.993914-16.719869-56.685557-55.685565-75.695409-66.913477-19.16585 11.317912-65.069492 50.323607-76.015406 66.929477-6.207952 9.425926-8.541933 16.947868-8.057937 25.969797z m395.754908-224.716245c-15.609878-35.289724-27.057789-57.883548-38.285701-75.549409a227.090226 227.090226 0 0 0-6.889946-10.23992c-24.489809-34.261732-53.987578-55.08757-132.288966-60.15953-1.971985-0.127999-3.971969-0.245998-5.995953-0.353998-4.083968-0.215998-8.269935-0.395997-12.571902-0.537995-8.439934-0.281998-17.649862-0.421997-27.379786-0.421997-68.967461 0-136.134936 5.221959-189.126523 14.705885-62.445512 11.177913-81.595363 23.775814-86.405325 27.877782 0.064 2.133983 0.145999 4.253967 0.243998 6.365951l0.062 1.20199c0.153999 3.099976 0.337997 6.147952 0.553996 9.159929l0.029999 0.383997c5.389958 73.755424 28.905774 121.66305 69.897454 142.386887 20.48584 10.355919 70.551449 8.057937 114.731104 6.027953 82.341357-3.771971 175.684627-8.065937 208.218373 52.977586a9525.589581 9525.589581 0 0 1 17.465864 32.983742c89.699299 169.952672 167.450692 317.229522 458.820415 457.572426 16.775869-24.403809 45.615644-78.415387 45.615644-161.37674 0-13.477895-0.679995-25.443801-2.143983-37.709705a329.677424 329.677424 0 0 0-0.583996-4.583964l-0.113999-0.811994c-0.181999-1.32599-0.373997-2.659979-0.561996-3.931969l-0.165998-1.081992c-0.193998-1.26599-0.395997-2.53798-0.611996-3.865969l-0.193998-1.187991-0.022-0.131999c-85.447332-3.247975-151.406817-28.533777-212.254342-81.007367-70.085452-60.433528-133.648956-158.522762-200.042437-308.691589z m323.263475-147.266849h-37.821705c-0.727994 34.60973-2.961977 98.481231-9.827923 169.286677-10.083921 103.999188-26.355794 183.748564-48.521621 238.280139a354.009234 354.009234 0 0 0 8.289935 7.407942c47.609628 41.055679 99.411223 62.237514 165.248709 67.107476a5910.059828 5910.059828 0 0 0-7.873938-32.775744c-24.725807-102.145202-58.235545-240.572121-69.493457-449.30649zM570.797541 304.896618a26.639792 26.639792 0 0 0-5.275959 0.537996 27.535785 27.535785 0 0 0-9.741924 4.031968 25.795798 25.795798 0 0 0-4.111968 3.355974 27.265787 27.265787 0 0 0-7.927938 19.129851c0 1.755986 0.189999 3.543972 0.541996 5.273958 0.351997 1.733986 0.865993 3.439973 1.541988 5.089961 0.675995 1.623987 1.515988 3.191975 2.48998 4.653963a25.795798 25.795798 0 0 0 3.355974 4.111968 27.575785 27.575785 0 0 0 4.111968 3.381974 27.383786 27.383786 0 0 0 9.741924 4.031968c8.767932 1.757986 18.129858-1.109991 24.407809-7.413942a27.575785 27.575785 0 0 0 3.381974-4.111968c0.973992-1.461989 1.811986-3.029976 2.48998-4.653963 0.675995-1.649987 1.189991-3.355974 1.541988-5.089961 0.351997-1.731986 0.513996-3.517973 0.513996-5.273958 0-7.115944-2.867978-14.09789-7.927938-19.129851a27.241787 27.241787 0 0 0-19.13385-7.925938zM894.519012 668.489777c5.549957-18.283857 9.803923-40.771681 10.357919-67.429473-112.561121-18.155858-202.614417-77.961391-284.711776-192.256498M620.143155 381.744018c-5.467957 0-10.985914 1.649987-15.763877 5.08396-12.135905 8.717932-14.909884 25.6278-6.191951 37.763705 79.769377 111.053132 168.660682 174.690635 278.113827 198.590448-1.501988 13.027898-4.065968 25.5618-7.67394 37.453708-4.339966 14.299888 3.733971 29.40977 18.033859 33.753736 14.299888 4.333966 29.41177-3.735971 33.749736-18.033859 7.099945-23.385817 10.975914-48.529621 11.51791-74.725416a27.059789 27.059789 0 0 0-22.741822-27.275787c-107.005164-17.263865-189.366521-73.187428-267.043914-181.332583a27.015789 27.015789 0 0 0-21.999828-11.277912z"  horiz-adv-x="1024" />

    
    <glyph glyph-name="danmushu" unicode="&#58981;" d="M800 768H224C134.4 768 64 697.6 64 608v-448c0-89.6 70.4-160 160-160h576c89.6 0 160 70.4 160 160V608c0 89.6-70.4 160-160 160z m96-608c0-54.4-41.6-96-96-96H224c-54.4 0-96 41.6-96 96V608c0 54.4 41.6 96 96 96h576c54.4 0 96-41.6 96-96v-448zM240 512h64v-64h-64zM368 512h384v-64h-384zM432 320h352v-64h-352zM304 320h64v-64h-64z"  horiz-adv-x="1024" />

    
    <glyph glyph-name="bofangqi-bofang" unicode="&#59044;" d="M744.727273 344.436364L325.818182 100.072727c-30.254545-18.618182-69.818182 4.654545-69.818182 39.563637v488.727272c0 34.909091 39.563636 58.181818 69.818182 39.563637l418.909091-244.363637c30.254545-16.290909 30.254545-62.836364 0-79.127272z"  horiz-adv-x="1024" />

    
    <glyph glyph-name="bofangqi-zanting" unicode="&#59045;" d="M442.181818 186.181818c0-37.236364-30.254545-69.818182-69.818182-69.818182s-69.818182 30.254545-69.818181 69.818182v395.636364c0 37.236364 30.254545 69.818182 69.818181 69.818182s69.818182-30.254545 69.818182-69.818182v-395.636364z m279.272727 0c0-37.236364-30.254545-69.818182-69.818181-69.818182s-69.818182 30.254545-69.818182 69.818182v395.636364c0 37.236364 30.254545 69.818182 69.818182 69.818182s69.818182-30.254545 69.818181-69.818182v-395.636364z"  horiz-adv-x="1024" />

    
    <glyph glyph-name="bofangqi-xiayiji" unicode="&#59046;" d="M721.454545 344.436364L302.545455 100.072727c-30.254545-18.618182-69.818182 4.654545-69.818182 39.563637v488.727272c0 34.909091 39.563636 58.181818 69.818182 39.563637l418.90909-244.363637c30.254545-16.290909 30.254545-62.836364 0-79.127272zM791.272727 211.781818c0-32.581818-30.254545-60.509091-69.818182-60.509091s-69.818182 27.927273-69.818181 60.509091V556.218182c0 32.581818 30.254545 60.509091 69.818181 60.509091s69.818182-27.927273 69.818182-60.509091v-344.436364z"  horiz-adv-x="1024" />

    
    <glyph glyph-name="danmu" unicode="&#58914;" d="M923.5 558.4c-22.6 53.4-54.9 101.3-96 142.5-41.2 41.2-89.1 73.5-142.5 96-55.3 23.4-114 35.2-174.5 35.2S391.3 820.2 336 796.9c-53.4-22.6-101.3-54.9-142.5-96-41.2-41.2-73.5-89.1-96-142.5-23.4-55.3-35.2-114-35.2-174.5s11.9-119.2 35.2-174.5c22.6-53.4 54.9-101.3 96-142.5 41.2-41.2 89.1-73.5 142.5-96 55.3-23.4 114-35.2 174.5-35.2s119.2 11.9 174.5 35.2c53.4 22.6 101.3 54.9 142.5 96 41.2 41.2 73.5 89.1 96 142.5 23.4 55.3 35.2 114 35.2 174.5s-11.8 119.2-35.2 174.5zM442.8-15c-155.9 25.5-305.6 175.2-331.1 331.1-45.1 275.8 191 511.8 466.7 466.7 155.9-25.4 305.6-175.1 331.1-331C954.6 176 718.6-60 442.8-15zM424 550.5c2.6-6 6.1-11.4 10.3-16.2 1.5-1.7 3.8-2.7 6.1-2.7h111.5c1.6 0 3.2 0.5 4.5 1.4 2.6 1.7 4.6 3.3 6 4.7 6.4 5.5 10.4 11.3 11.9 17.3 0.2 0.6 0.2 1.3 0.2 1.9v87.5c0 0.4 0 0.9-0.1 1.3-0.5 2.8-1.1 5.1-1.9 6.8-5.3 11.5-15.2 18.5-29.7 20.8-0.4 0.1-0.9 0.1-1.4 0.1h-91.3c-0.8 0-1.5-0.1-2.3-0.3-2.3-0.6-4.2-1.2-5.6-1.5-0.5-0.1-0.9-0.3-1.3-0.5-11.1-4.9-17.8-13.3-20.1-25.3-0.1-0.5-0.1-1.1-0.1-1.6v-82.9c0-0.9 0.1-1.8 0.4-2.6 1.1-3.4 2.1-6.2 2.9-8.2z m16.9 76.4c0 1.3 0.3 2.6 0.9 3.7 0.3 0.7 0.6 1.2 0.9 1.7 0.2 0.4 0.4 0.8 0.7 1.1 3.8 5.3 9.4 9 16.7 11.3 0.8 0.2 1.5 0.3 2.3 0.3h69.8c1.3 0 2.5-0.3 3.7-0.9l9.9-5c2.8-1.4 4.5-4.2 4.5-7.3V565c0-3.1-1.8-5.9-4.5-7.3l-9.9-5c-1.1-0.6-2.4-0.9-3.7-0.9h-69.4c-1.1 0-2.1 0.2-3.1 0.6-2.8 1.1-5 2.3-6.5 3.4-5.9 4.2-9.8 9.2-11.8 15-0.3 0.8-0.4 1.6-0.4 2.4l-0.1 53.7zM384.2 321.1c-3.5 7.1-8.1 13.1-13.7 18.2-1.5 1.3-3.5 2.1-5.5 2.1h-68.5c-1 0-1.9 0.2-2.8 0.5-3.3 1.2-5.8 2.4-7.3 3.6-5.5 3.8-9.2 8.8-11.2 15.1-0.2 0.7-0.3 1.5-0.3 2.3v98.7c0 1 0.2 1.9 0.5 2.8 1.2 3.3 2.4 5.8 3.6 7.3 3.8 5.5 8.8 9.2 15.1 11.1 0.7 0.2 1.5 0.3 2.3 0.3h46.4c0.7 0 1.3 0.1 2 0.2 10.7 2.6 18 5.2 22 7.9 7 4.3 11.4 10.8 13.3 19.4 0.1 0.6 0.2 1.2 0.2 1.7V643.4c0 1.1-0.2 2.3-0.7 3.3-2.3 5.3-4.5 9.4-6.5 12.2-0.1 0.2-0.3 0.4-0.4 0.6-7.6 9.3-17.2 13.9-28.8 13.9h-82c-2.2 0-4.3-0.9-5.8-2.4-0.7-0.7-1.1-1.2-1.3-1.6-2.3-3.6-3.4-7-3.4-10.1 0-3.3 1.6-6.2 5-8.6 1.4-1 3.1-1.6 4.8-1.6h80.2c1.6 0 3.2-0.5 4.5-1.4l6.4-4.3c2.3-1.5 3.6-4.1 3.6-6.8v-116.1c0-3.1-1.8-5.9-4.5-7.3l-9.9-5c-1.1-0.6-2.4-0.9-3.7-0.9h-57.6c-0.8 0-1.7-0.1-2.5-0.4-5.2-1.7-9.1-3.4-11.6-5-8.4-6.2-13.5-15-15.4-26.3-0.1-0.5-0.1-0.9-0.1-1.4v-123.8c0-0.7 0.1-1.4 0.3-2 1.3-4.9 2.5-8.6 3.8-11.1 3.5-7.1 8.1-13.1 13.7-18.2 1.5-1.3 3.5-2.1 5.5-2.1h67.6c1.6 0 3.1-0.4 4.5-1.3 5.2-3.4 8.8-7.6 11-12.5 2.5-5.6 3.7-12 3.7-19.2 0-5.9-0.5-11.7-1.3-17.5-2.2-14.7-3.3-23.3-3.4-26v-0.6c-3.6-37.2-6-59.3-7.4-66.5-4.8-23.2-14.1-43.7-27.9-61.3-0.8-1-1.8-1.9-3-2.4-2.6-1.2-5.4-1.7-8.2-1.7-5.9 0-12.8 2.5-20.9 7.4-17.1 10.4-27.5 15.5-31 15.5-6.4 0-11.8-3.8-16.3-11.3-1.7-2.9-1.4-6.6 0.7-9.3 6.5-7.9 15.1-14.3 25.7-19.3 12.6-5.8 25.4-8.8 38.5-8.8 13.5 0 24.7 3.3 33.7 9.8 8.9 6.4 14.3 16.5 16.1 30.2 0 0.4 0.1 0.7 0.2 1.1 5.8 20.5 10.2 37.4 13.3 50.8 9 39.4 15.2 77.6 18.9 114.3V308c0 0.7-0.1 1.4-0.3 2-1.4 4.8-2.7 8.5-3.9 11.1zM619 547.2c3.6-6.5 8.4-11.3 14.2-14.5 1.2-0.7 2.6-1 4-1h113.1c1.6 0 3.2 0.5 4.5 1.4 2.6 1.7 4.6 3.3 6 4.7 6.1 6.1 10.1 13.2 11.9 21.4 0.1 0.6 0.2 1.2 0.2 1.9v78.4c0 1.2-0.2 2.3-0.7 3.4-2.4 5.5-4.7 9.7-6.7 12.5-7.2 9.4-16.9 14.2-29 14.2h-85c-10.8 0-19.6-2.8-26.3-8.4-6.8-5.6-10.1-13.6-10.1-24v-79.5c0-1 0.2-2.1 0.6-3.1 1-3.1 2.2-5.5 3.3-7.4z m16.2 79.7c0 1.3 0.3 2.6 0.9 3.7 0.3 0.7 0.6 1.2 0.9 1.7 0.2 0.4 0.4 0.8 0.7 1.1 3.8 5.3 9.4 9 16.7 11.3 0.7 0.2 1.5 0.3 2.3 0.3h77.9c1.3 0 2.5-0.3 3.7-0.9l9.9-5c2.8-1.4 4.5-4.2 4.5-7.3V565c0-3.1-1.8-5.9-4.5-7.3l-9.9-5c-1.1-0.6-2.4-0.9-3.7-0.9H657c-1.1 0-2.1 0.2-3.1 0.6-2.8 1.1-5 2.3-6.5 3.4-5.9 4.2-9.8 9.2-11.8 15-0.3 0.8-0.4 1.6-0.4 2.4v53.7zM786.6 199.1c-0.9 0.3-1.8 0.4-2.7 0.4H619.1c-4.5 0-8.2 3.7-8.2 8.2v44.4c0 4.5 3.7 8.2 8.2 8.2h108.7c0.4 0 0.7 0 1.1 0.1 6.9 0.9 12.1 2 15.7 3.3 10.4 3.8 18.2 10 23.2 18.9 0.7 1.3 1.1 2.7 1.1 4.1V467.5c0 2.2-0.9 4.3-2.4 5.8l-11.4 11.4c-1.5 1.5-3.6 2.4-5.8 2.4h-301c-2.2 0-4.3-0.9-5.8-2.4l-11.4-11.4c-1.5-1.5-2.4-3.6-2.4-5.8v-188.4c0-1.8 0.6-3.6 1.7-5s2.1-2.5 3.1-3.1c7.6-7.2 15.5-10.8 23.6-10.8h121.4c4.5 0 8.2-3.7 8.2-8.2v-44.4c0-4.5-3.7-8.2-8.2-8.2H414.2c-1.1 0-2.1-0.2-3.1-0.6-1-0.4-1.8-0.8-2.5-1.1-0.5-0.2-0.9-0.5-1.3-0.8-2.3-1.8-3.4-4.1-3.4-7 0-1.8 0.7-4 2.1-6.6 1.4-2.6 4.2-4.2 7.1-4.2h165.5c4.5 0 8.2-3.7 8.2-8.2v-97.5c0-2.8 1.3-5.4 3.7-6.8 0.1-0.1 0.2-0.1 0.4-0.2 3.1-1.8 6.1-2.7 8.8-2.7 4.5 0 8.1 2.8 10.7 8.4 0.5 1.1 0.8 2.3 0.8 3.5V171c0 4.5 3.7 8.2 8.2 8.2h174c0.9 0.4 1.3 0.9 1.3 1.3 0.4 1.4 0.7 3.8 0.7 7.4-0.2 5.6-3.1 9.3-8.8 11.2zM610.9 458.7c0 4.5 3.7 8.2 8.2 8.2h103.6c1 0 2.1-0.2 3-0.6l13.6-5.5c3.1-1.2 5.2-4.3 5.2-7.6V394c0-4.5-3.7-8.2-8.2-8.2H619.1c-4.5 0-8.2 3.7-8.2 8.2v64.7z m0-101.3c0 4.5 3.7 8.2 8.2 8.2h117.3c4.5 0 8.2-3.7 8.2-8.2v-59.6c0-3.1-1.8-5.9-4.5-7.3l-9.9-5c-1.1-0.6-2.4-0.9-3.7-0.9H619.1c-4.5 0-8.2 3.7-8.2 8.2v64.6z m-24.3-64.6c0-4.5-3.7-8.2-8.2-8.2H466.1c-0.6 0-1.1 0.1-1.7 0.2-1.8 0.4-4.2 0.8-7.3 1.2-2.9 0.4-5.1 1.8-6.9 4.5-0.8 1.3-1.2 2.8-1.2 4.3v62.7c0 4.5 3.7 8.2 8.2 8.2h121.3c4.5 0 8.2-3.7 8.2-8.2v-64.7z m0 101.2c0-4.5-3.7-8.2-8.2-8.2H457.1c-4.5 0-8.2 3.7-8.2 8.2v59.6c0 3.1 1.8 5.9 4.5 7.3l9.9 5c1.1 0.6 2.4 0.9 3.7 0.9h111.4c4.5 0 8.2-3.7 8.2-8.2V394z"  horiz-adv-x="1024" />

    
    <glyph glyph-name="paihang" unicode="&#59622;" d="M405.333333 134.4c-8.533333 0-17.066667 2.133333-23.466666 8.533333-12.8 8.533333-19.2 23.466667-17.066667 38.4l19.2 106.666667-76.8 74.666667c-10.666667 10.666667-14.933333 27.733333-10.666667 40.533333 4.266667 14.933333 17.066667 25.6 32 27.733333l106.666667 14.933334 46.933333 96c6.4 14.933333 21.333333 23.466667 36.266667 23.466666s29.866667-8.533333 36.266667-23.466666l46.933333-96 106.666667-14.933334c14.933333-2.133333 27.733333-12.8 32-27.733333 4.266667-14.933333 0-29.866667-10.666667-40.533333l-76.8-74.666667 19.2-106.666667c2.133333-14.933333-4.266667-29.866667-17.066667-38.4-12.8-8.533333-29.866667-10.666667-42.666666-2.133333L516.266667 192l-96-51.2c-2.133333-4.266667-8.533333-6.4-14.933334-6.4z m-66.133333 256l89.6-87.466667-21.333333-123.733333 110.933333 57.6 110.933333-57.6-21.333333 123.733333 89.6 87.466667-121.6 19.2-55.466667 113.066667-55.466666-113.066667-125.866667-19.2zM236.8-44.8c-12.8 0-25.6 4.266667-34.133333 10.666667-14.933333 10.666667-21.333333 27.733333-21.333334 46.933333V725.333333c0 38.4 32 70.4 70.4 70.4h541.866667c38.4 0 70.4-32 70.4-70.4v-710.4c0-19.2-8.533333-36.266667-21.333333-46.933333-14.933333-10.666667-34.133333-14.933333-51.2-8.533333L561.066667 21.333333c-21.333333 6.4-61.866667 6.4-83.2 0l-224-61.866666c-6.4-2.133333-12.8-4.266667-17.066667-4.266667z m12.8 797.866667c-14.933333 0-27.733333-12.8-27.733333-27.733334v-710.4c0-6.4 2.133333-10.666667 6.4-14.933333 4.266667-2.133333 8.533333-4.266667 14.933333-2.133333l224 61.866666c29.866667 8.533333 76.8 8.533333 106.666667 0L797.866667 0c6.4-2.133333 10.666667-2.133333 14.933333 2.133333 4.266667 2.133333 6.4 8.533333 6.4 14.933334V725.333333c0 14.933333-12.8 27.733333-27.733333 27.733334H249.6zM840.533333 625.066667h-640c-12.8 0-21.333333 8.533333-21.333333 21.333333s8.533333 21.333333 21.333333 21.333333h640c12.8 0 21.333333-8.533333 21.333334-21.333333s-10.666667-21.333333-21.333334-21.333333z"  horiz-adv-x="1024" />

    
    <glyph glyph-name="yinle" unicode="&#59407;" d="M903.6 800.7c0 9-4.3 17.3-11.5 22.6-7.3 5.3-16.6 6.7-25.1 3.9L390.2 670.1c-11.4-3.7-19.1-14.3-19.2-26.3l-2.5-439.1c-26.2 21.6-59.7 34.6-96.2 34.6-83.4 0-151.3-67.9-151.3-151.3s67.9-151.3 151.3-151.3c83.3 0 151.1 67.7 151.3 151.1v0.1l2.5 445.2L700 623c9.8 3.2 15.1 13.7 11.8 23.5-3.2 9.8-13.7 15.1-23.5 11.9l-262-86.2 0.3 51.2 421.1 138.7V711l-70-23c-9.8-3.2-15.1-13.7-11.8-23.5 2.6-7.8 9.8-12.8 17.7-12.8 1.9 0 3.9 0.3 5.8 0.9l58.5 19.3v-329.1c-26.1 21.3-59.3 34.1-95.5 34.1-83.5 0-151.4-67.9-151.4-151.3s67.9-151.3 151.3-151.3 151.3 67.9 151.3 151.3c0 4.1-0.3 8.1-0.6 12.1 0.4 1.9 0.6 3.8 0.6 5.8V800.7zM272.4-7.6c-52.7 0-95.5 42.9-95.5 95.5 0 52.7 42.9 95.5 95.5 95.5 52.7 0 95.5-42.9 95.5-95.5 0.1-52.7-42.8-95.5-95.5-95.5z m479.9 137.7c-52.7 0-95.6 42.9-95.6 95.5 0 52.7 42.9 95.6 95.6 95.6 52.7 0 95.5-42.9 95.5-95.6 0-52.7-42.8-95.5-95.5-95.5zM791.8 244c-10.3 0-18.6-8.3-18.6-18.6 0-11.5-9.4-21-21-21s-21 9.4-21 21c0 7.5 4.1 14.5 10.6 18.2 8.9 5.1 11.9 16.5 6.8 25.4-5.1 8.9-16.5 11.9-25.4 6.8-18-10.4-29.2-29.7-29.2-50.4 0-32.1 26.1-58.1 58.2-58.1s58.2 26.1 58.2 58.1c0.1 10.2-8.3 18.6-18.6 18.6zM312 109.1c-10.3 0-18.6-8.3-18.6-18.6 0-11.5-9.4-21-21-21s-21 9.4-21 21c0 7.5 4 14.5 10.5 18.2 8.9 5.2 11.9 16.5 6.8 25.4-5.1 8.9-16.5 12-25.4 6.8-18-10.4-29.2-29.7-29.2-50.4 0-32.1 26.1-58.1 58.1-58.1 32.1 0 58.1 26.1 58.1 58.1 0.3 10.3-8 18.6-18.3 18.6z"  horiz-adv-x="1024" />

    
    <glyph glyph-name="yinle2" unicode="&#59034;" d="M484.725382 146.912092a108.50681 108.50681 0 0 0 0 217.01362 99.526207 99.526207 0 0 0 11.199339-0.633925v23.032604a207.6104 207.6104 0 1 1-415.2208 0v-23.032604a98.047049 98.047049 0 0 0 11.199339 0.633925 108.50681 108.50681 0 0 0 0-217.01362A98.047049 98.047049 0 0 0 80.703921 147.546017v-67.935617a207.6104 207.6104 0 0 1 415.2208 0v67.935617a99.526207 99.526207 0 0 0-11.199339-0.633925zM231.683698 896h42.261659v-834.139496h-42.261659zM302.683285 896h42.261659v-834.139496h-42.261659zM206.00974 752.521667h164.609162v-42.261659H206.00974zM206.00974 823.626909h164.609162v-42.261659H206.00974zM235.909864 894.626496h104.70326v-42.261659h-104.70326zM206.00974 86.689228h164.609162v-42.261659H206.00974zM534.171523 256.792406a47.544366 47.544366 0 1 0-47.544367 47.544367 47.544366 47.544366 0 0 0 47.544367-47.544367zM486.627156 142.368964A114.423442 114.423442 0 1 0 601.050598 256.792406a114.63475 114.63475 0 0 0-114.423442-114.423442z m0 186.585225a72.161783 72.161783 0 1 1 72.161783-72.161783 72.267437 72.267437 0 0 1-72.161783 72.161783zM819.015105 352.198102a47.544366 47.544366 0 1 0-47.544366 47.544366 47.438712 47.438712 0 0 0 47.544366-47.544366zM771.470739 237.77466a114.423442 114.423442 0 1 0 114.529096 114.423442A114.529096 114.529096 0 0 0 771.470739 237.77466z m0 186.585224a72.161783 72.161783 0 1 1 72.267437-72.161782 72.267437 72.267437 0 0 1-72.267437 72.161782zM600.627982 246.4383h-42.261659V634.611638l327.527858 119.177879v-403.49319h-42.261659V693.460999l-243.00454-88.432522v-358.590177zM643.586958 576.290549l285.266199 103.752373 14.442922-39.704829-285.266199-103.773504z"  horiz-adv-x="1024" />

    
    <glyph glyph-name="yinleshipin" unicode="&#58997;" d="M603.21743708 565.32473423L503.84075742 546.72302859c-7.20606615-1.34066346-12.40113709-7.20606615-12.4011371-13.90938349v-201.26710334c0-11.22805655-8.54672961-21.11544964-20.44511792-23.62919364l-30.332511-6.53573443c-18.26653979-3.85440749-32.67867206-18.26653979-32.84625501-35.52758194-0.16758294-23.46161072 23.62919365-40.72265287 48.43146785-35.52758192l15.92037871 3.35165867c25.97535471 5.53023681 44.40947741 26.14293764 45.58255795 50.44246304h0.16758293V465.78047163c0 5.36265388 4.0219904 9.88739309 9.71981014 10.89289067l80.10464231 14.9148811c5.86540268 1.00549761 9.88739309 5.69781977 9.8873931 11.22805659v51.11279476c0.67033173 7.37364908-6.5357344 12.73630295-14.4121323 11.39563948zM863.64131599 657.49534772H162.64190445c-29.15943044 0-52.7886241-23.62919365-52.78862411-52.78862408v-402.86937254c0-29.15943044 23.62919365-52.7886241 52.78862411-52.7886241h700.99941154c29.15943044 0 52.7886241 23.62919365 52.78862409 52.7886241V604.53914068c0 29.15943044-23.62919365 52.95620705-52.78862409 52.95620704z m23.4616107-455.65799662c0-12.90388589-10.55772482-23.46161072-23.4616107-23.46161069H162.64190445c-12.90388589 0-23.46161072 10.55772482-23.46161072 23.46161069V604.53914068c0 12.90388589 10.55772482 23.46161072 23.46161072 23.46161074h700.99941154c12.90388589 0 23.46161072-10.55772482 23.4616107-23.46161074v-402.70178958zM698.90729218 100.11451038999996H327.37592828c-16.25554457 0-29.32701339-13.07146883-29.32701342-29.32701342s13.07146883-29.32701339 29.32701342-29.32701339h371.5313639c16.25554457 0 29.32701339 13.07146883 29.32701341 29.32701339s-13.07146883 29.32701339-29.32701341 29.32701342z"  horiz-adv-x="1024" />

    
    <glyph glyph-name="paihangbang" unicode="&#59121;" d="M939.855405 693.222359H832.417563v78.366426A124.320931 124.320931 0 0 1 708.367484 896H315.271381a124.411215 124.411215 0 0 1-124.05008-124.411215v-78.366426H83.873744A84.144595 84.144595 0 0 1 0 609.077764c0-123.14724 82.248633-199.437136 194.561806-232.481044a321.862105 321.862105 0 0 1 281.414918-273.469935v-158.899665H308.680656a36.11356 36.11356 0 0 1 0-72.22712h406.277552a36.11356 36.11356 0 0 1 0 72.22712H547.662141v158.899665a321.681538 321.681538 0 0 1 281.414918 273.469935c112.313172 33.043908 194.65209 109.333804 194.652089 232.481044a84.144595 84.144595 0 0 1-83.873743 84.144595zM67.442074 609.077764A16.612238 16.612238 0 0 0 83.873744 625.148298h107.347557v-175.602186C118.542761 480.694057 67.442074 525.023453 67.442074 609.077764z m444.377358-440.314583a254.14918 254.14918 0 0 0-252.794921 253.968612V771.588785a56.69829 56.69829 0 0 0 56.24687 56.69829h393.096103a56.69829 56.69829 0 0 0 56.608005-56.69829v-348.856992a254.14918 254.14918 0 0 0-252.794921-253.968612z m320.598131 280.782931V625.148298h107.437842a16.612238 16.612238 0 0 0 16.341386-16.43167c0-83.693176-51.100688-128.022571-123.779228-159.170516zM696.540293 426.523717a33.675895 33.675895 0 0 1-43.426556-19.772174 153.482631 153.482631 0 0 0-92.540999-90.283901 33.856463 33.856463 0 0 1 11.014636-65.816963 32.953624 32.953624 0 0 1 10.924352 1.805678 218.938459 218.938459 0 0 1 133.710457 130.640804A33.856463 33.856463 0 0 1 696.540293 426.523717zM517.417034 738.093458l-2.437665-2.708517a163.955563 163.955563 0 0 0-33.856463-27.08517 183.998589 183.998589 0 0 0-39.8152-16.341386l-6.410157-1.62511v-64.914125l10.743784 3.069653a180.567801 180.567801 0 0 1 55.253747 25.911479v-223.272086h64.282137v306.965262z"  horiz-adv-x="1024" />

    
    <glyph glyph-name="quanping" unicode="&#59322;" d="M128.025 768.377h256.093v-64.161H128.025zM128.025 704.216h64.012V512.21h-64.012zM640.124 768.01h256.05v-63.794h-256.05zM832.162 704.216h64.012V512.21h-64.012zM128.025 256.035h64.012V0.36h-64.012zM192.037 64.279h192.08v-63.919h-192.08zM832.162 256.035h64.012V0.36h-64.012zM640.124 64.279h194.209v-63.919H640.124zM255.953 640.047v-511.849h511.849V640.047H255.953z m447.38-447.38H319.041v383.11h384.293v-383.11z"  horiz-adv-x="1024" />

    
    <glyph glyph-name="gaogenxie" unicode="&#58886;" d="M832.634269 10.392835999999988l23.552-12.88406 12.884059-23.567283 12.899344 23.567283 23.552 12.88406-23.552 12.899343-12.899344 23.552-12.884059-23.552-23.552-12.899343zM869.062687 662.1153429999999l36.160955-19.776955 19.776955-36.160955 19.776955 36.160955 36.145672 19.776955-36.145672 19.776956-19.776955 36.145671-19.776955-36.145671-36.160955-19.776956zM223.65994 435.352836l-32.416477 59.269731-59.269732 32.401194 59.269732 32.416478 32.416477 59.269731 32.416478-59.269731 59.254448-32.416478-59.254448-32.401194-32.416478-59.269731z m-36.443701 91.670925l23.567283-12.88406 12.88406-23.552 12.88406 23.552 23.552 12.88406-23.552 12.899343-12.88406 23.552-12.88406-23.552-23.567283-12.899343zM799.766925 556.994866c0 22.894806-9.08609 44.834388-25.286686 61.027343l-17.599045 17.568478a41.930507 41.930507 0 0 1-60.194388-0.924657L440.090746 361.785313a76.899343 76.899343 0 0 0-93.206925-14.656955l-34.823642 19.24203-159.950328-159.988537c-8.10794-8.092657-2.376597-21.954866 9.086089-21.954866h57.703164l-73.414686-73.414686c-8.10794-8.092657-2.376597-21.954866 9.086089-21.954866h270.534687a138.346985 138.346985 0 0 1 123.674746 76.310925l57.878926 115.444538a138.362269 138.362269 0 0 0 57.703164 59.583044l83.624119 45.376956a86.275821 86.275821 0 0 1 45.147702 75.837134c0 15.107821-4.027224 29.772418-11.386269 42.671761a86.237612 86.237612 0 0 1 18.019343 52.713075zM731.464597 389.395104v-272.063044a28.389254 28.389254 0 1 1 56.763224 0V431.035224l-56.763224-41.64012z m0 0M702.945433 355.71009000000004l-81.881791-45.162986c-24.36203-13.434269-35.404418-59.789373-47.807045-84.984358l-54.073313-94.72c-22.971224-46.569075-81.132896-70.52609-132.371105-70.526089H121.917134c-11.225791 0-16.834866 13.793433-8.910328 21.863164L302.851821 270.29014900000004l34.105313-19.135045a74.201791 74.201791 0 0 1 36.390209-9.536955 74.690866 74.690866 0 0 1 54.86806 24.102209l218.012657 242.802627a40.57791 40.57791 0 0 0 58.941134 0.93994l17.224597-17.507343a86.61206 86.61206 0 0 0 24.759403-60.744597c0-31.499463-16.957134-60.484776-44.207761-75.500895z m0 0M804.917493 511.457433a102.896716 102.896716 0 0 1 11.164656 46.538507c0 27.403463-10.66794 53.16394-30.062806 72.551164l-17.583761 17.599045a57.848358 57.848358 0 0 1-41.151045 17.041194h-0.970507a57.817791 57.817791 0 0 1-41.563702-18.401433l-102.048477-109.506865a16.17003 16.17003 0 0 1-4.371105-11.699582 16.200597 16.200597 0 0 1 5.196418-11.355702c6.312119-5.907104 17.163463-5.540299 23.085851 0.802388l101.987343 109.445732c4.776119 5.089433 11.271642 7.955104 18.615403 8.062089 6.862328 0 13.296716-2.674627 18.13397-7.488955l17.583762-17.599045a69.395104 69.395104 0 0 0 20.495283-49.45003c0-6.312119-0.848239-12.570746-2.552358-18.653612l-12.433194 12.417911a57.894209 57.894209 0 0 1-41.196896 17.056477h-0.924656a57.741373 57.741373 0 0 1-41.525493-18.340298l-256.59606-272.888358a60.79809 60.79809 0 0 0-44.146626-19.089194 60.660537 60.660537 0 0 0-29.26806 7.550089l-34.823642 19.226746a16.659104 16.659104 0 0 1-19.448358-2.758686L219.747343 201.75092500000005H169.571343l145.354508 145.354508 24.056358-13.281433a93.329194 93.329194 0 0 1 45.056-11.623164c25.638209 0 50.38997 10.698507 67.88203 29.31391l88.446089 93.061732a16.368716 16.368716 0 0 1-0.596059 23.101134c-6.327403 6.01409-17.056478 5.731343-23.078209-0.59606l-88.491941-93.130507a60.782806 60.782806 0 0 0-44.146626-19.073911 60.775164 60.775164 0 0 0-29.26806 7.534806l-34.838926 19.24203a16.636179 16.636179 0 0 1-19.433074-2.758686L140.555463 218.92967199999998a29.092299 29.092299 0 0 1-6.342687-31.820418 29.115224 29.115224 0 0 1 26.967881-18.011702h25.89803l-46.523224-46.538507a29.084657 29.084657 0 0 1-6.342687-31.820418 29.115224 29.115224 0 0 1 26.967881-18.011702H583.909254a16.345791 16.345791 0 0 1 0 32.676299h-57.152955a155.074866 155.074866 0 0 1 43.22197 52.659582l57.894209 115.444537a121.366925 121.366925 0 0 0 50.863761 52.537314l33.165373 17.988776v-228.474269a42.870448 42.870448 0 0 1 42.832239-42.824597 42.870448 42.870448 0 0 1 42.809313 42.824597V402.783522a102.147821 102.147821 0 0 1 18.523702 58.818866c0 16.834866-4.134209 33.478687-11.982329 48.21206 0.290388 0.550209 0.573134 1.085134 0.832956 1.642985z m-21.496359-49.855045a70.304478 70.304478 0 0 0-14.435343-42.564776l-0.435582-0.565493a69.769552 69.769552 0 0 0-21.733254-18.340298l-83.639403-45.376955c-27.968955-15.176597-50.267701-38.208955-64.504358-66.628776l-57.878925-115.429254a121.359284 121.359284 0 0 0-109.048359-67.301254H169.571343l145.354508 145.346866 24.056358-13.281433a93.382687 93.382687 0 0 1 45.056-11.623164c25.630567 0 50.38997 10.713791 67.927881 29.390328l256.626626 272.880717c4.760836 5.089433 11.271642 7.955104 18.60012 8.077373 6.877612 0 13.312-2.674627 18.149254-7.504239l17.583761-17.583761c3.102567-3.087284 5.922388-6.510806 8.40597-10.148299l2.552358 1.74997-2.147343-2.34603a69.517373 69.517373 0 0 0 11.684298-38.751522z m-38.835582-99.862925l17.835941 9.674507c0.817672 0.466149 1.642985 0.924657 2.460656 1.40609v-257.268538a10.163582 10.163582 0 0 0-10.133015-10.148298 10.163582 10.163582 0 0 0-10.163582 10.148298V361.739463zM560.899821 474.914388c4.493373 0 8.83391 1.879881 11.898269 5.150567l0.985791 1.046926c3.003224 3.178985 4.569791 7.328478 4.432238 11.699582a16.200597 16.200597 0 0 1-5.135283 11.386268c-6.312119 5.922388-17.148179 5.593791-23.085851-0.733612l-1.001075-1.046925a16.208239 16.208239 0 0 1-4.416955-11.699582 16.269373 16.269373 0 0 1 16.322866-15.803224zM628.644299 100.60417900000004c-3.041433-3.056716-4.776119-7.267343-4.77612-11.554388s1.734687-8.49003 4.791403-11.554388a16.506269 16.506269 0 0 1 11.539105-4.776119 16.384 16.384 0 0 1 16.330507 16.330507c0 4.302328-1.74997 8.520597-4.791403 11.554388-6.05994 6.05994-16.941851 6.121075-23.093492 0z"  horiz-adv-x="1024" />

    
    <glyph glyph-name="gaogenxie1" unicode="&#58891;" d="M938.8 500.2c-0.3 1-0.3 2.1-0.2 3.1 0.1 0.7 0.1 1.5 0 2.2-0.3 3.9-0.7 7.9-1.2 11.9 0 0.2-0.1 0.4-0.1 0.6-6.2 32.1-18.3 67.3-36.1 102.5-0.3 0.6-0.5 1.2-0.6 1.9-2.3 4.2-4.8 8.3-7.3 12.5-19.5 31.7-42.6 58.3-66.2 78.2-7.3 6.1-18 5.8-25.1-0.6l-50.9-46.2c-6.6-6-11.7-13.5-14.9-21.9-20-52.4-48.3-109.7-83.9-167.4-109.9-177.8-247.7-291.7-308-254.4-3.4 2.1-6.6 4.7-9.4 7.7-16.3 17.6-43.8 18.6-61.6 2.5l-174-157.9c-15.2-13.8-5.4-39.1 15.1-39.1l398.1 9.7c32.4 0 61.3 20.6 71.6 51.3 15.7 46.9 42.4 92.3 78 148.1 32 50.2 95 116 109.1 130.6 1.9 2 4.7 2.7 7.3 1.9 25.3-8 35.1-52 36-55.9 0-0.2 0.1-0.4 0.1-0.5 7.5-55.4 12.1-135.3 12.1-224.1 0-18.3-0.2-36.2-0.6-53.6-0.1-4.1 3.2-7.5 7.3-7.5h31.7c4.4 0 7.8 3.8 7.3 8.1-4.3 39.2-6.7 82.1-6.7 127.2 0 162.6 31 297.9 71.8 325.8 0.8 0.5 1.3 1.4 1.3 2.4 0.2 0.4 0.1 0.7 0 0.9zM342.3 230.6c-12.9 0-24.6 3.1-34.9 9.3-3.8 2.3-5 7.2-2.7 11s7.2 5 11 2.7c12.4-7.5 27.8-9 45.9-4.5 44.6 11.1 104.3 58 172.7 135.6C600.1 459.4 671 558.9 739 672.4c2.3 3.8 7.2 5 11 2.7s5-7.2 2.7-11c-68.6-114.4-140-214.7-206.5-290.1-49.2-55.8-120.5-125.5-180.9-140.5-8-1.9-15.7-2.9-23-2.9zM88.1 16.2c-13.2 0-24.6 7.9-29.3 20.1-4.7 12.2-1.5 25.7 8.2 34.5L267.8 253c7.7 7 18.1 10.1 28.4 8.4 10.5-1.7 19.5-8 24.8-17.3 3.9-6.9 8.9-12.3 14.9-16 27.2-16.8 75.9 0.9 133.6 48.6 60.7 50.2 124.8 127.4 180.5 217.4 36.1 58.4 66.5 119 87.9 175.5 3.8 10 9.9 19 17.7 26.1l54 49c10.2 9.3 25.9 9.6 36.5 0.8 26.6-22.2 51.4-51.5 71.9-84.7 2.4-4 4.9-8.1 7.2-12.2 0.5-0.8 1.1-2.1 1.5-3.6 18.5-36.4 31.9-74.5 38.8-110.1 0.1-0.3 0.1-0.7 0.2-1.1 0.4-3 0.7-5.9 1-8.8 0.9-9.7-3.1-19.2-10.5-25.4-8.2-6.8-16.7-13.5-25.4-19.7-20.6-14.9-73.1-42.6-80.2-45.7h-0.1c-50.4-27.5-118-101.6-176.5-193.3-38.4-60.3-65.4-107.2-81.5-155.1-11.9-35.6-45.2-59.5-82.8-59.6l-421.6-10z m202.6 229.6c-4.5 0-8.8-1.6-12.2-4.7L77.7 58.9c-5.7-5.2-5.8-12.1-4-16.9 1.8-4.7 6.5-9.8 14.2-9.8l421.5 9.8c30.8 0 58 19.5 67.7 48.6 16.6 49.5 44.1 97.4 83.2 158.7 59.8 93.8 129.7 170 182.3 198.7l1.2 0.6c6.7 3 58 30.1 77.4 44.1 8.4 6 16.6 12.4 24.5 19 3.4 2.9 5.3 7.3 4.9 11.7-0.2 2.7-0.5 5.4-0.9 8.2v0.1c-6.6 34.3-19.6 71-37.4 106.1-0.4 0.8-0.8 1.7-1 2.7 0 0 0 0.1-0.1 0.1-2.3 4-4.6 7.9-6.9 11.7-19.5 31.7-43.2 59.7-68.5 80.8-4.5 3.7-11.2 3.6-15.5-0.4l-54-49c-5.9-5.4-10.6-12.3-13.5-19.9-21.8-57.4-52.7-119-89.3-178.2-56.5-91.5-121.8-170.1-183.9-221.3-46.6-38.5-87.9-58.4-120-58.4-12.1 0-22.9 2.8-32.2 8.6-8.3 5.1-15.1 12.4-20.4 21.7-2.9 5.1-7.7 8.5-13.4 9.4-1 0.1-1.9 0.2-2.9 0.2z m620.5 394.9zM885.6 16.2h-41.2c-3.3 0-6.4 1.3-8.7 3.6-2.3 2.3-3.5 5.5-3.4 8.7 0.5 19.7 0.7 39.9 0.7 60.1 0 89.5-4.6 175.3-12.7 235.5-2.9 14.2-14.8 50.9-35.9 53.8l-6.9 0.9V397l2.5 2.4c22.9 22 44.2 38.5 63.3 48.8l0.7 0.3c5.4 2.3 58.1 30.2 77.6 44.2 9.4 6.8 18.6 14 27.3 21.4 1 0.9 1.8 2.1 2.1 3.4l3.7 14.4 10-11c2.4-2.6 3.3-6.1 2.6-9.6-0.6-2.8-2.2-5.3-4.7-7-19-13.1-37.5-54.6-50.8-113.8-13.9-62.3-21.5-141.7-21.5-223.5 0-47.7 2.5-93.9 7.5-137.4 0.4-3.4-0.7-6.9-3-9.4-2.5-2.6-5.8-4-9.2-4z m-37.3 16h32.9c-4.7 42.8-7.1 88.1-7.1 134.9 0 82.9 7.8 163.5 21.9 227 5.7 25.4 13.8 54.8 25 79.3-24-15.3-64-36.3-70.7-39.3-16.7-9.1-35.3-23.3-55.6-42.4 30.3-12 40.6-62.3 41.1-64.6l0.1-0.5c8.2-60.9 12.9-147.6 12.9-237.9 0.1-19.1-0.1-38-0.5-56.5zM68 34.1c-4 0-7.4 3-7.9 7-0.5 4.4 2.6 8.4 7 8.9l440.1 52.7h0.2c20.4 1.4 39.6 11.2 52.5 27.1l109.3 133.3c2.8 3.4 7.8 3.9 11.3 1.1 3.4-2.8 3.9-7.8 1.1-11.3L572.2 119.7c-15.7-19.2-38.9-31.1-63.6-32.9L68.9 34.2c-0.3-0.1-0.6-0.1-0.9-0.1z"  horiz-adv-x="1024" />

    
    <glyph glyph-name="volume-x" unicode="&#59043;" d="M469.333333 42.666667c-8.533333 0-17.066667 4.266667-25.6 8.533333L238.933333 213.333333H85.333333c-25.6 0-42.666667 17.066667-42.666666 42.666667V512c0 25.6 17.066667 42.666667 42.666666 42.666667h153.6l200.533334 162.133333c12.8 8.533333 29.866667 12.8 46.933333 4.266667 17.066667-8.533333 25.6-21.333333 25.6-38.4v-597.333334c0-17.066667-8.533333-29.866667-25.6-38.4-4.266667-4.266667-12.8-4.266667-17.066667-4.266666z m-341.333333 256h128c8.533333 0 17.066667-4.266667 25.6-8.533334l145.066667-115.2V593.066667L281.6 477.866667c-8.533333-4.266667-17.066667-8.533333-25.6-8.533334H128v-170.666666zM725.333333 213.333333c-12.8 0-21.333333 4.266667-29.866666 12.8-17.066667 17.066667-17.066667 42.666667 0 59.733334l256 256c17.066667 17.066667 42.666667 17.066667 59.733333 0 17.066667-17.066667 17.066667-42.666667 0-59.733334l-256-256c-8.533333-8.533333-17.066667-12.8-29.866667-12.8zM981.333333 213.333333c-12.8 0-21.333333 4.266667-29.866666 12.8l-256 256c-17.066667 17.066667-17.066667 42.666667 0 59.733334s42.666667 17.066667 59.733333 0l256-256c17.066667-17.066667 17.066667-42.666667 0-59.733334-8.533333-8.533333-17.066667-12.8-29.866667-12.8z"  horiz-adv-x="1024" />

    
    <glyph glyph-name="volume-" unicode="&#59047;" d="M469.333333 42.666667c-8.533333 0-17.066667 4.266667-25.6 8.533333L238.933333 213.333333H85.333333c-25.6 0-42.666667 17.066667-42.666666 42.666667V512c0 25.6 17.066667 42.666667 42.666666 42.666667h153.6l200.533334 162.133333c12.8 8.533333 29.866667 12.8 46.933333 4.266667 17.066667-8.533333 25.6-21.333333 25.6-38.4v-597.333334c0-17.066667-8.533333-29.866667-25.6-38.4-4.266667-4.266667-12.8-4.266667-17.066667-4.266666z m-341.333333 256h128c8.533333 0 17.066667-4.266667 25.6-8.533334l145.066667-115.2V593.066667L281.6 477.866667c-8.533333-4.266667-17.066667-8.533333-25.6-8.533334H128v-170.666666zM814.933333 38.4c-12.8 0-21.333333 4.266667-29.866666 12.8-17.066667 17.066667-17.066667 42.666667 0 59.733333 149.333333 149.333333 149.333333 392.533333 0 541.866667-17.066667 17.066667-17.066667 42.666667 0 59.733333 17.066667 17.066667 42.666667 17.066667 59.733333 0 183.466667-183.466667 183.466667-482.133333 0-665.6-8.533333-4.266667-21.333333-8.533333-29.866667-8.533333z m-153.6 153.6c-12.8 0-21.333333 4.266667-29.866666 12.8-17.066667 17.066667-17.066667 42.666667 0 59.733333 68.266667 68.266667 68.266667 174.933333 0 243.2-17.066667 17.066667-17.066667 42.666667 0 59.733334 17.066667 17.066667 42.666667 17.066667 59.733333 0 98.133333-98.133333 98.133333-260.266667 0-362.666667-4.266667-8.533333-17.066667-12.8-29.866667-12.8z"  horiz-adv-x="1024" />

    
    <glyph glyph-name="volume-1" unicode="&#59048;" d="M469.333333 42.666667c-8.533333 0-17.066667 4.266667-25.6 8.533333L238.933333 213.333333H85.333333c-25.6 0-42.666667 17.066667-42.666666 42.666667V512c0 25.6 17.066667 42.666667 42.666666 42.666667h153.6l200.533334 162.133333c12.8 8.533333 29.866667 12.8 46.933333 4.266667 17.066667-8.533333 25.6-21.333333 25.6-38.4v-597.333334c0-17.066667-8.533333-29.866667-25.6-38.4-4.266667-4.266667-12.8-4.266667-17.066667-4.266666z m-341.333333 256h128c8.533333 0 17.066667-4.266667 25.6-8.533334l145.066667-115.2V593.066667L281.6 477.866667c-8.533333-4.266667-17.066667-8.533333-25.6-8.533334H128v-170.666666zM661.333333 192c-12.8 0-21.333333 4.266667-29.866666 12.8-17.066667 17.066667-17.066667 42.666667 0 59.733333 68.266667 68.266667 68.266667 174.933333 0 243.2-17.066667 17.066667-17.066667 42.666667 0 59.733334 17.066667 17.066667 42.666667 17.066667 59.733333 0 98.133333-98.133333 98.133333-260.266667 0-362.666667-4.266667-8.533333-17.066667-12.8-29.866667-12.8z"  horiz-adv-x="1024" />

    
    <glyph glyph-name="heart" unicode="&#59066;" d="M512-51.2c-12.8 0-21.333333 4.266667-29.866667 12.8l-375.466666 375.466667C55.466667 388.266667 25.6 460.8 25.6 533.333333s29.866667 145.066667 81.066667 196.266667S226.133333 810.666667 298.666667 810.666667c72.533333 0 145.066667-29.866667 196.266666-81.066667l17.066667-17.066667 17.066667 17.066667C580.266667 780.8 648.533333 810.666667 725.333333 810.666667c72.533333 0 145.066667-29.866667 196.266667-81.066667 106.666667-106.666667 106.666667-285.866667 0-392.533333l-375.466667-375.466667c-12.8-8.533333-21.333333-12.8-34.133333-12.8zM298.666667 725.333333c-46.933333 0-98.133333-17.066667-132.266667-55.466666-76.8-76.8-76.8-196.266667 0-273.066667l345.6-345.6 345.6 345.6c38.4 38.4 55.466667 85.333333 55.466667 136.533333 0 51.2-21.333333 98.133333-55.466667 136.533334C823.466667 704 776.533333 725.333333 725.333333 725.333333c-51.2 0-98.133333-21.333333-136.533333-55.466666l-42.666667-46.933334c-17.066667-17.066667-42.666667-17.066667-59.733333 0l-46.933333 46.933334C401.066667 708.266667 349.866667 725.333333 298.666667 725.333333z"  horiz-adv-x="1024" />

    
    <glyph glyph-name="pause-circle" unicode="&#59078;" d="M512-85.333333C251.733333-85.333333 42.666667 123.733333 42.666667 384S251.733333 853.333333 512 853.333333s469.333333-209.066667 469.333333-469.333333-209.066667-469.333333-469.333333-469.333333z m0 853.333333c-213.333333 0-384-170.666667-384-384s170.666667-384 384-384 384 170.666667 384 384-170.666667 384-384 384zM426.666667 213.333333c-25.6 0-42.666667 17.066667-42.666667 42.666667V512c0 25.6 17.066667 42.666667 42.666667 42.666667s42.666667-17.066667 42.666666-42.666667v-256c0-25.6-17.066667-42.666667-42.666666-42.666667zM597.333333 213.333333c-25.6 0-42.666667 17.066667-42.666666 42.666667V512c0 25.6 17.066667 42.666667 42.666666 42.666667s42.666667-17.066667 42.666667-42.666667v-256c0-25.6-17.066667-42.666667-42.666667-42.666667z"  horiz-adv-x="1024" />

    
    <glyph glyph-name="play" unicode="&#59082;" d="M213.333333-42.666667c-8.533333 0-12.8 0-21.333333 4.266667-12.8 8.533333-21.333333 21.333333-21.333333 38.4V768c0 17.066667 8.533333 29.866667 21.333333 38.4 12.8 8.533333 29.866667 8.533333 42.666667 0l597.333333-384c12.8-8.533333 21.333333-21.333333 21.333333-34.133333s-8.533333-29.866667-21.333333-34.133334l-597.333333-384c-4.266667-8.533333-12.8-12.8-21.333334-12.8zM256 691.2v-610.133333L733.866667 384 256 691.2z"  horiz-adv-x="1024" />

    
    <glyph glyph-name="refresh-cw" unicode="&#59085;" d="M981.333333 426.666667h-256c-25.6 0-42.666667 17.066667-42.666666 42.666666s17.066667 42.666667 42.666666 42.666667h213.333334V725.333333c0 25.6 17.066667 42.666667 42.666666 42.666667s42.666667-17.066667 42.666667-42.666667v-256c0-25.6-17.066667-42.666667-42.666667-42.666666zM42.666667 0c-25.6 0-42.666667 17.066667-42.666667 42.666667v256c0 25.6 17.066667 42.666667 42.666667 42.666666h256c25.6 0 42.666667-17.066667 42.666666-42.666666s-17.066667-42.666667-42.666666-42.666667H85.333333v-213.333333c0-25.6-17.066667-42.666667-42.666666-42.666667zM512-42.666667c-115.2 0-221.866667 42.666667-302.933333 123.733334L12.8 264.533333c-17.066667 17.066667-17.066667 42.666667 0 59.733334 17.066667 17.066667 42.666667 17.066667 59.733333 0l196.266667-187.733334C337.066667 76.8 422.4 42.666667 512 42.666667s174.933333 34.133333 243.2 98.133333c34.133333 34.133333 64 81.066667 81.066667 128 8.533333 21.333333 34.133333 34.133333 55.466666 25.6 21.333333-8.533333 34.133333-34.133333 25.6-55.466667-21.333333-59.733333-55.466667-115.2-102.4-157.866666C733.866667 0 627.2-42.666667 512-42.666667z m469.333333 469.333334c-8.533333 0-21.333333 4.266667-29.866666 12.8l-196.266667 187.733333c-38.4 38.4-81.066667 64-128 81.066667-85.333333 29.866667-179.2 25.6-260.266667-12.8-85.333333-42.666667-145.066667-110.933333-174.933333-196.266667-8.533333-21.333333-34.133333-34.133333-55.466667-25.6-21.333333 4.266667-34.133333 29.866667-25.6 51.2 38.4 110.933333 115.2 196.266667 217.6 243.2 102.4 51.2 217.6 55.466667 324.266667 17.066667C712.533333 763.733333 768 729.6 810.666667 682.666667l196.266666-183.466667c17.066667-17.066667 17.066667-42.666667 0-59.733333-4.266667-8.533333-12.8-12.8-25.6-12.8z"  horiz-adv-x="1024" />

    
    <glyph glyph-name="rotate-cw" unicode="&#59086;" d="M981.333333 426.666667h-256c-25.6 0-42.666667 17.066667-42.666666 42.666666s17.066667 42.666667 42.666666 42.666667h213.333334V725.333333c0 25.6 17.066667 42.666667 42.666666 42.666667s42.666667-17.066667 42.666667-42.666667v-256c0-25.6-17.066667-42.666667-42.666667-42.666666zM512-42.666667c-46.933333 0-93.866667 8.533333-140.8 25.6C149.333333 59.733333 34.133333 307.2 110.933333 529.066667 187.733333 750.933333 435.2 866.133333 657.066667 789.333333c59.733333-21.333333 115.2-55.466667 157.866666-102.4l196.266667-183.466666c17.066667-17.066667 17.066667-42.666667 0-59.733334-17.066667-17.066667-42.666667-17.066667-59.733333 0l-196.266667 187.733334c-38.4 38.4-81.066667 64-128 81.066666-179.2 55.466667-375.466667-38.4-435.2-213.333333-64-179.2 29.866667-375.466667 204.8-435.2 179.2-64 371.2 29.866667 435.2 209.066667 8.533333 21.333333 34.133333 34.133333 55.466667 25.6 21.333333-8.533333 34.133333-34.133333 25.6-55.466667C853.333333 68.266667 686.933333-42.666667 512-42.666667z"  horiz-adv-x="1024" />

    
    <glyph glyph-name="repeat" unicode="&#59087;" d="M725.333333 469.333333c-12.8 0-21.333333 4.266667-29.866666 12.8-17.066667 17.066667-17.066667 42.666667 0 59.733334L836.266667 682.666667l-140.8 140.8c-17.066667 17.066667-17.066667 42.666667 0 59.733333s42.666667 17.066667 59.733333 0l170.666667-170.666667c17.066667-17.066667 17.066667-42.666667 0-59.733333l-170.666667-170.666667c-8.533333-8.533333-17.066667-12.8-29.866667-12.8zM128 384c-25.6 0-42.666667 17.066667-42.666667 42.666667V512c0 119.466667 93.866667 213.333333 213.333334 213.333333h597.333333c25.6 0 42.666667-17.066667 42.666667-42.666666s-17.066667-42.666667-42.666667-42.666667H298.666667C226.133333 640 170.666667 584.533333 170.666667 512v-85.333333c0-25.6-17.066667-42.666667-42.666667-42.666667zM298.666667-128c-12.8 0-21.333333 4.266667-29.866667 12.8l-170.666667 170.666667c-17.066667 17.066667-17.066667 42.666667 0 59.733333l170.666667 170.666667c17.066667 17.066667 42.666667 17.066667 59.733333 0s17.066667-42.666667 0-59.733334L187.733333 85.333333l140.8-140.8c17.066667-17.066667 17.066667-42.666667 0-59.733333-8.533333-8.533333-17.066667-12.8-29.866666-12.8zM725.333333 42.666667H128c-25.6 0-42.666667 17.066667-42.666667 42.666666s17.066667 42.666667 42.666667 42.666667h597.333333c72.533333 0 128 55.466667 128 128v85.333333c0 25.6 17.066667 42.666667 42.666667 42.666667s42.666667-17.066667 42.666667-42.666667v-85.333333c0-119.466667-93.866667-213.333333-213.333334-213.333333z"  horiz-adv-x="1024" />

    
    <glyph glyph-name="skip-back" unicode="&#59092;" d="M810.666667 0c-8.533333 0-17.066667 4.266667-25.6 8.533333l-426.666667 341.333334c-12.8 8.533333-17.066667 21.333333-17.066667 34.133333s4.266667 25.6 17.066667 34.133333l426.666667 341.333334c12.8 8.533333 29.866667 12.8 46.933333 4.266666 12.8-8.533333 21.333333-21.333333 21.333333-38.4v-682.666666c0-17.066667-8.533333-29.866667-25.6-38.4-4.266667-4.266667-12.8-4.266667-17.066666-4.266667z m-358.4 384l315.733333-251.733333V635.733333L452.266667 384zM213.333333 42.666667c-25.6 0-42.666667 17.066667-42.666666 42.666666V682.666667c0 25.6 17.066667 42.666667 42.666666 42.666666s42.666667-17.066667 42.666667-42.666666v-597.333334c0-25.6-17.066667-42.666667-42.666667-42.666666z"  horiz-adv-x="1024" />

    
    <glyph glyph-name="skip-forward" unicode="&#59093;" d="M213.333333 0c-4.266667 0-12.8 0-17.066666 4.266667-17.066667 8.533333-25.6 21.333333-25.6 38.4V725.333333c0 17.066667 8.533333 29.866667 25.6 38.4 12.8 8.533333 29.866667 4.266667 42.666666-4.266666l426.666667-341.333334c8.533333-8.533333 17.066667-21.333333 17.066667-34.133333s-4.266667-25.6-17.066667-34.133333l-426.666667-341.333334c-8.533333-4.266667-17.066667-8.533333-25.6-8.533333zM256 635.733333v-503.466666l315.733333 251.733333L256 635.733333zM810.666667 42.666667c-25.6 0-42.666667 17.066667-42.666667 42.666666V682.666667c0 25.6 17.066667 42.666667 42.666667 42.666666s42.666667-17.066667 42.666666-42.666666v-597.333334c0-25.6-17.066667-42.666667-42.666666-42.666666z"  horiz-adv-x="1024" />

    


  </font>
</defs>
</svg>
